<?xml version="1.0" encoding="UTF-8" standalone="no" ?>
<!DOCTYPE svg PUBLIC "-//W3C//DTD SVG 1.1//EN" "http://www.w3.org/Graphics/SVG/1.1/DTD/svg11.dtd">
<svg xmlns="http://www.w3.org/2000/svg" xmlns:xlink="http://www.w3.org/1999/xlink" version="1.1" width="1280" height="1024" viewBox="0 0 1280 1024" xml:space="preserve">
<desc>Created with Fabric.js 5.3.0</desc>
<defs>
</defs>
<g transform="matrix(1 0 0 1 640 512)" id="background-logo"  >
<rect style="stroke: none; stroke-width: 0; stroke-dasharray: none; stroke-linecap: butt; stroke-dashoffset: 0; stroke-linejoin: miter; stroke-miterlimit: 4; fill: rgb(255,255,255); fill-opacity: 0; fill-rule: nonzero; opacity: 1;"  paint-order="stroke"  x="-640" y="-512" rx="0" ry="0" width="1280" height="1024" />
</g>
<g transform="matrix(1.9211538461538462 0 0 1.9211538461538462 640 392.03058941057816)" id="logo-logo"  >
<g style=""  paint-order="stroke"   >
		<g transform="matrix(1.1271963379947978 0 0 1.1271963379947978 0 38.92282775184208)"  >
<polygon style="stroke: none; stroke-width: 1; stroke-dasharray: none; stroke-linecap: butt; stroke-dashoffset: 0; stroke-linejoin: miter; stroke-miterlimit: 4; fill: rgb(60,20,68); fill-rule: nonzero; opacity: 1;"  paint-order="stroke"  points="106.54177859999999,28.037307800000008 87.87033079999998,-0.00001520000000709842 78.13031009999997,-14.62928770000002 27.314849899999956,-14.62928770000002 26.360198999999966,-13.19731139999999 17.57492069999995,-0.00001520000000709842 -0.00006100000001652006,26.3902741 -26.360199000000023,-13.19731139999999 -35.14559940000004,-26.390396100000032 -35.14990230000001,-26.390396100000032 -43.935195900000025,-39.58769219999999 -52.72047420000004,-52.78068539999998 -61.51017760000002,-39.58769219999999 -70.29545590000004,-26.390396100000032 -106.54188540000004,28.037307800000008 -116.28179930000002,42.66661069999998 -98.70692440000002,42.66661069999998 -88.96690370000002,28.037307800000008 -85.93954470000003,23.491958599999975 -61.51017760000002,-13.19731139999999 -52.72047420000004,-26.390396100000032 -43.935195900000025,-13.19731139999999 -52.72047420000004,-0.00001520000000709842 -71.39202880000002,28.037307800000008 -81.13626100000002,42.66661069999998 -24.30902100000003,42.66661069999998 -56.69099430000003,32.34620669999998 -43.935195900000025,13.192977900000017 -35.14990230000001,-0.00001520000000709842 -16.478363,28.037307800000008 -6.734130900000025,42.66661069999998 -0.00006100000001652006,52.78068539999998 6.734130899999968,42.66661069999998 16.478363,28.037307800000008 35.14550779999996,-0.00001520000000709842 35.149810799999955,-0.00001520000000709842 43.93508909999997,13.192977900000017 56.69052119999998,32.34620669999998 24.309020999999973,42.66661069999998 81.13626099999999,42.66661069999998 71.3919373,28.037307800000008 52.720489499999985,-0.00001520000000709842 70.29547119999995,-0.00001520000000709842 83.90554809999998,20.43455510000001 88.9669189,28.037307800000008 98.71112059999996,42.66661069999998 116.28179929999999,42.66661069999998 " />
</g>
		<g transform="matrix(1.1271963379947978 0 0 1.1271963379947978 12.57353840042606 -29.7471062165599)"  >
<polygon style="stroke: none; stroke-width: 1; stroke-dasharray: none; stroke-linecap: butt; stroke-dashoffset: 0; stroke-linejoin: miter; stroke-miterlimit: 4; fill: rgb(60,20,68); fill-rule: nonzero; opacity: 1;"  paint-order="stroke"  points="-28.729621950000023,-18.25009160000002 -19.94004065000007,-5.056976400000053 -19.94004065000007,-5.05267340000006 -11.154762250000033,8.140319799999986 -5.319343550000042,16.904083199999945 -2.3693618500000184,21.333312999999976 -2.3693618500000184,21.337615899999946 -9.15940095000002,31.53338619999994 -11.154762250000033,34.530609099999936 -13.15000155000007,31.53338619999994 -19.94004065000007,21.337615899999946 -19.94004065000007,21.333312999999976 -22.89423375000007,16.904083199999945 -28.729621950000023,8.140319799999986 -37.51490025000004,-5.056976400000053 -46.300300650000054,-18.25009160000002 -46.304603550000024,-18.25009160000002 -55.08989715000004,-5.056976400000053 -46.304603550000024,8.140319799999986 -46.300300650000054,8.140319799999986 -37.51490025000004,21.333312999999976 -28.729621950000023,34.530609099999936 -11.154762250000033,60.92098999999996 6.420219449999934,34.530609099999936 8.415489149999985,31.53338619999994 57.14540864999998,31.53338619999994 50.35536954999998,21.333312999999976 47.40547944999997,16.904083199999945 41.56578824999997,8.140319799999986 32.780387849999954,-5.056976400000053 23.99510954999994,-18.25009160000002 23.990806549999945,-18.25009160000002 15.20549774999995,-31.447387700000036 6.420219449999934,-44.640380900000025 5.319358849999958,-46.291687000000024 2.5016097499999432,-50.52142340000006 34.83589934999998,-60.92099000000002 -4.420570350000048,-60.92099000000002 -21.995765750000032,-60.92099000000002 -12.255622850000066,-46.291687000000024 -12.25122835000002,-46.291687000000024 -11.154762250000033,-44.640380900000025 -2.3693618500000184,-31.447387700000036 -2.365150450000044,-31.447387700000036 -1.5652847500000462,-30.243316700000037 6.420219449999934,-18.25009160000002 15.20549774999995,-5.056976400000053 23.990806549999945,8.140319799999986 23.99510954999994,8.140319799999986 29.83049774999995,16.904083199999945 12.255516049999983,16.904083199999945 6.420219449999934,8.140319799999986 -2.3693618500000184,-5.05267340000006 -2.3693618500000184,-5.056976400000053 -19.94004065000007,-31.443084800000065 -19.94004065000007,-31.447387700000036 -28.729621950000023,-44.640380900000025 -29.826210050000043,-46.291687000000024 -37.51490025000004,-57.83767700000004 -39.57053375000004,-60.92099000000002 -57.145408650000036,-60.92099000000002 -37.51490025000004,-31.447387700000036 " />
</g>
</g>
</g>
<g transform="matrix(1.9211538461538462 0 0 1.9211538461538462 639.3322669951739 633.0061772368608)" id="text-logo"  >
<g style=""  paint-order="stroke"   >
		<g transform="matrix(1 0 0 1 0 0)" id="text-logo-path-0"  >
<path style="stroke: none; stroke-width: 0; stroke-dasharray: none; stroke-linecap: butt; stroke-dashoffset: 0; stroke-linejoin: miter; stroke-miterlimit: 4; fill: rgb(62,22,70); fill-rule: nonzero; opacity: 1;"  paint-order="stroke"  transform=" translate(-61.129999999999995, 17.505)" d="M 12.74 0 L -0.49 -35.01 L 9.25 -35.01 L 17.75 -10.5 L 26.25 -35.01 L 36.01 -35.01 L 22.75 0 L 12.74 0 Z M 53.26 0 L 44.25 0 L 44.25 -35.01 L 53.75 -35.01 L 63.76 -16.5 L 73.74 -35.01 L 83.24 -35.01 L 83.24 0 L 74.26 0 L 74.26 -19.51 L 67.25 -7.01 L 60.24 -7.01 L 53.26 -19.51 L 53.26 0 Z M 122.75 0 L 95 0 L 95 -35.01 L 122.75 -35.01 L 122.75 -28 L 104 -28 L 104 -21.24 L 118.75 -21.24 L 118.75 -14.26 L 104 -14.26 L 104 -7.01 L 122.75 -7.01 L 122.75 0 Z" stroke-linecap="round" />
</g>
</g>
</g>
<g transform="matrix(1.9211538461538462 0 0 1.9211538461538462 663.6559979700744 739.0457292554908)" id="tagline-68c4ec47-f9f1-48f3-9b49-3a392f473552-logo"  >
<g style=""  paint-order="stroke"   >
		<g transform="matrix(1 0 0 1 0 0)" id="tagline-68c4ec47-f9f1-48f3-9b49-3a392f473552-logo-path-0"  >
<path style="stroke: none; stroke-width: 0; stroke-dasharray: none; stroke-linecap: butt; stroke-dashoffset: 0; stroke-linejoin: miter; stroke-miterlimit: 4; fill: rgb(62,22,70); fill-rule: nonzero; opacity: 1;"  paint-order="stroke"  transform=" translate(-146.97981332155123, 3.3599999999999994)" d="M -1.36 -0.19 C 1.1 0.07 2.33 -2.23 3.18 -4.52 L 3.43 -5.25 C 3.79 -4.81 4.39 -4.52 5 -4.49 C 5.15 -4.23 5.29 -3.94 5.42 -3.62 C 6.09 -2.11 6.66 -0.05 8.45 -0.24 C 8.62 -0.26 8.76 -0.41 8.76 -0.58 C 8.76 -0.78 8.59 -0.94 8.38 -0.92 C 7.17 -0.8 6.73 -2.35 6.04 -3.89 C 5.95 -4.11 5.85 -4.33 5.73 -4.54 C 7.06 -4.79 7.84 -5.8 8.23 -6.89 C 9.25 -9.62 7.84 -11.7 5.47 -11.7 C 3.57 -11.7 1.84 -10.42 2.06 -8.23 C 2.07 -8.06 2.23 -7.92 2.4 -7.92 C 2.6 -7.92 2.75 -8.09 2.74 -8.3 C 2.55 -10.06 3.84 -11.02 5.47 -11.02 C 7.41 -11.02 8.47 -9.47 7.58 -7.12 C 7.21 -6.09 6.58 -5.29 5.36 -5.19 C 4.96 -5.75 4.47 -6.15 3.76 -6.22 C 4.4 -8.19 4.9 -9.72 5.76 -9.44 C 5.97 -9.37 6.21 -9.52 6.21 -9.76 C 6.21 -9.91 6.1 -10.03 5.97 -10.08 C 4.1 -10.69 3.52 -7.43 2.53 -4.76 C 1.72 -2.52 0.71 -0.65 -1.29 -0.87 C -1.48 -0.88 -1.67 -0.73 -1.67 -0.53 C -1.67 -0.36 -1.53 -0.2 -1.36 -0.19 Z M 14.18 -2.28 C 14.18 -1.17 14.67 -0.19 15.78 -0.19 C 17.26 -0.19 18.96 -1.48 19.82 -3.71 C 19.89 -3.91 19.75 -4.17 19.5 -4.17 C 19.36 -4.17 19.23 -4.08 19.18 -3.94 C 18.39 -1.94 16.98 -0.87 15.78 -0.87 C 15.11 -0.87 14.86 -1.38 14.86 -2.28 C 14.86 -2.62 14.91 -2.96 15.03 -3.32 C 15.39 -3.09 15.76 -2.98 16.12 -2.96 C 16.92 -2.92 17.65 -3.37 18.09 -4.11 C 18.7 -5.17 18.62 -6.48 17.54 -6.48 C 15.66 -6.48 14.18 -4.05 14.18 -2.28 Z M 15.27 -3.96 C 15.76 -4.96 16.59 -5.8 17.54 -5.8 C 17.95 -5.8 17.94 -5.22 17.51 -4.45 C 17.15 -3.89 16.71 -3.6 16.15 -3.64 C 15.84 -3.66 15.57 -3.74 15.27 -3.96 Z M 30.11 -3.83 C 29.56 -2.48 28.81 -0.88 28.07 -0.88 C 27.57 -0.88 27.44 -1.12 27.44 -1.79 C 27.44 -2.47 27.68 -3.35 28.05 -4.3 C 28.24 -4.73 28.41 -5.15 28.58 -5.53 C 28.61 -5.58 28.61 -5.64 28.61 -5.71 L 28.61 -5.76 C 28.61 -5.81 28.59 -5.88 28.58 -5.92 C 28.41 -6.22 27.98 -6.48 27.52 -6.48 C 25.96 -6.48 24.77 -5.25 24.12 -3.94 C 23.75 -3.21 23.54 -2.38 23.54 -1.73 C 23.54 -0.9 23.92 -0.2 24.72 -0.2 C 25.47 -0.2 26.15 -0.88 26.76 -1.84 L 26.76 -1.79 C 26.76 -0.9 27.13 -0.2 28.07 -0.2 C 29.27 -0.2 30.21 -2.24 30.84 -3.83 C 30.99 -4.25 30.26 -4.33 30.11 -3.83 Z M 24.22 -1.73 C 24.22 -2.3 24.39 -2.98 24.73 -3.64 C 25.33 -4.83 26.27 -5.8 27.52 -5.8 C 27.69 -5.8 27.81 -5.76 27.9 -5.7 C 27.71 -5.29 27.54 -4.88 27.39 -4.47 C 26.57 -2.7 25.62 -0.88 24.72 -0.88 C 24.36 -0.88 24.22 -1.12 24.22 -1.73 Z M 39.46 -5.53 C 39.2 -6.12 38.73 -6.48 38.08 -6.48 C 36.07 -6.48 34.77 -4.03 34.73 -2.24 C 34.71 -1.16 35.19 -0.19 36.33 -0.19 C 37.83 -0.19 39.3 -1.38 40.44 -3.83 C 40.66 -4.28 39.9 -4.28 39.71 -3.83 C 38.78 -1.77 37.52 -0.87 36.33 -0.87 C 35.65 -0.87 35.39 -1.36 35.41 -2.24 C 35.45 -3.81 36.52 -5.8 38.08 -5.8 C 38.45 -5.8 38.67 -5.64 38.84 -5.25 C 38.9 -5.13 39.02 -5.05 39.15 -5.05 C 39.41 -5.05 39.56 -5.32 39.46 -5.53 Z M 50.83 -4.01 C 50.03 -2.64 49.1 -0.9 48.18 -0.9 C 47.79 -0.9 48.23 -1.97 48.81 -3.47 C 49.4 -5.07 49.84 -6.48 48.72 -6.48 C 47.41 -6.48 46.14 -4.85 44.98 -3.03 C 45.03 -3.2 45.1 -3.37 45.15 -3.55 L 45.22 -3.6 C 46.46 -5.15 48.26 -7.72 48.43 -7.97 C 50.1 -10.4 50.46 -11.73 49.3 -11.73 C 46.75 -11.73 44.68 -4.39 43.55 -0.68 C 43.54 -0.65 43.54 -0.61 43.54 -0.56 L 43.54 -0.51 C 43.57 -0.34 43.69 -0.22 43.88 -0.22 C 44.01 -0.22 44.15 -0.31 44.2 -0.44 C 45.68 -2.89 47.31 -5.8 48.72 -5.8 C 48.94 -5.8 48.65 -5.02 48.16 -3.71 C 47.46 -1.9 46.87 -0.22 48.18 -0.22 C 49.54 -0.22 50.61 -2.3 51.41 -3.67 C 51.44 -3.72 51.46 -3.77 51.46 -3.84 C 51.46 -4.03 51.31 -4.18 51.12 -4.18 C 51 -4.18 50.88 -4.11 50.83 -4.01 Z M 45.81 -5.51 C 46.85 -8.4 48.09 -11.05 49.3 -11.05 C 49.54 -11.05 49.32 -10.46 47.85 -8.35 C 47.74 -8.16 46.8 -6.82 45.81 -5.51 Z M 57.53 -7.43 C 57.8 -7.43 58.05 -7.65 58.07 -7.94 C 58.09 -8.21 57.9 -8.43 57.63 -8.43 C 57.34 -8.43 57.09 -8.21 57.07 -7.94 C 57.05 -7.65 57.24 -7.43 57.53 -7.43 Z M 55.4 -1.9 C 55.4 -0.97 55.76 -0.2 56.71 -0.2 C 57.92 -0.2 58.75 -2.13 59.28 -3.72 C 59.35 -3.93 59.19 -4.17 58.96 -4.17 C 58.8 -4.17 58.68 -4.06 58.63 -3.93 C 58.11 -2.36 57.44 -0.88 56.71 -0.88 C 56.22 -0.88 56.08 -1.17 56.08 -1.9 C 56.08 -2.96 56.58 -4.5 57.2 -6 C 57.31 -6.21 57.15 -6.48 56.9 -6.48 C 56.76 -6.48 56.64 -6.39 56.59 -6.27 C 55.93 -4.74 55.4 -3.06 55.4 -1.9 Z M 69.61 -3.96 C 68.92 -2.35 67.8 -0.9 66.96 -0.9 C 66.45 -0.9 67.15 -2.55 67.68 -4.2 C 68.1 -5.42 68.31 -6.48 67.35 -6.48 C 66.54 -6.48 65.21 -5.05 64.07 -3.3 C 64.38 -4.2 64.72 -5.1 65.09 -6 C 65.16 -6.22 65.02 -6.48 64.77 -6.48 C 64.63 -6.48 64.5 -6.39 64.45 -6.27 C 63.68 -4.39 63.05 -2.5 62.54 -0.65 C 62.47 -0.46 62.63 -0.22 62.87 -0.22 C 62.88 -0.22 62.9 -0.22 62.92 -0.22 L 62.97 -0.22 C 63.1 -0.22 63.22 -0.31 63.27 -0.43 C 64.43 -3.04 66.57 -5.8 67.35 -5.8 C 67.47 -5.8 67.37 -5.41 67.03 -4.4 C 66.4 -2.47 65.47 -0.22 66.96 -0.22 C 68.17 -0.22 69.5 -1.99 70.23 -3.69 C 70.33 -3.89 70.18 -4.17 69.92 -4.17 C 69.78 -4.17 69.67 -4.08 69.61 -3.96 Z M 80.36 -3.96 C 79.78 -2.72 78.9 -1.89 77.89 -1.22 C 78.39 -2.87 78.81 -4.57 79.22 -6.05 C 79.29 -6.24 79.13 -6.48 78.9 -6.48 C 78.78 -6.48 78.66 -6.41 78.61 -6.31 C 78.44 -6.41 78.2 -6.48 77.94 -6.48 C 75.51 -6.48 73.97 -3.5 73.97 -1.73 C 73.97 -0.9 74.34 -0.2 75.14 -0.2 C 76.04 -0.2 76.84 -1.19 77.54 -2.43 C 77.38 -1.85 77.21 -1.28 77.03 -0.7 C 76.5 -0.41 75.96 -0.14 75.39 0.14 C 73.88 0.9 71.28 2.31 71.28 3.84 C 71.28 4.79 72.2 5.32 73.03 5.32 C 75.22 5.32 76.57 2.79 77.57 -0.24 C 78.93 -1.02 80.19 -2.01 80.97 -3.66 C 80.99 -3.71 81 -3.76 81 -3.81 C 81 -4 80.85 -4.15 80.66 -4.15 C 80.53 -4.15 80.41 -4.06 80.36 -3.96 Z M 71.96 3.84 C 71.96 2.75 74.19 1.51 75.7 0.75 L 76.7 0.24 C 75.82 2.72 74.68 4.64 73.03 4.64 C 72.44 4.64 71.96 4.37 71.96 3.84 Z M 74.65 -1.73 C 74.65 -3.3 75.96 -5.8 77.94 -5.8 C 78.11 -5.8 78.22 -5.75 78.34 -5.68 C 77.43 -3.62 76.26 -0.88 75.14 -0.88 C 74.78 -0.88 74.65 -1.12 74.65 -1.73 Z M 91.92 -0.22 C 94.45 -0.56 95.59 -2.47 96.25 -4.52 C 97.15 -7.36 97.22 -10.47 98.58 -11 C 98.75 -9.69 98.58 -7.94 98.46 -6.19 C 98.28 -3.77 98.12 -1.33 99.21 -0.29 L 99.28 -0.24 C 99.33 -0.22 99.38 -0.2 99.45 -0.2 C 99.6 -0.2 99.72 -0.29 99.77 -0.43 C 99.77 -0.44 99.77 -0.46 99.79 -0.48 C 101 -4.4 102.44 -7.63 104.48 -11.22 C 104.52 -11.27 104.53 -11.32 104.53 -11.39 C 104.53 -11.58 104.38 -11.73 104.19 -11.73 C 104.07 -11.73 103.95 -11.66 103.9 -11.56 C 101.95 -8.13 100.52 -5 99.33 -1.31 C 98.87 -2.31 98.99 -4.15 99.14 -6.15 C 99.28 -8.02 99.47 -10.03 99.21 -11.48 C 99.18 -11.61 99.08 -11.73 98.92 -11.75 C 97.24 -11.97 95.83 -11.34 95.06 -9.98 C 95.03 -9.93 95.01 -9.88 95.01 -9.81 C 95.01 -9.62 95.17 -9.47 95.35 -9.47 C 95.47 -9.47 95.59 -9.54 95.64 -9.64 C 96.08 -10.42 96.73 -10.88 97.55 -11.05 C 96.49 -9.76 96.32 -6.97 95.61 -4.73 C 94.98 -2.75 94.03 -1.19 91.82 -0.9 C 91.66 -0.88 91.53 -0.73 91.53 -0.56 C 91.53 -0.36 91.71 -0.2 91.92 -0.22 Z M 106.52 -2.28 C 106.52 -1.17 107.01 -0.19 108.12 -0.19 C 109.6 -0.19 111.3 -1.48 112.17 -3.71 C 112.23 -3.91 112.1 -4.17 111.84 -4.17 C 111.71 -4.17 111.57 -4.08 111.52 -3.94 C 110.74 -1.94 109.33 -0.87 108.12 -0.87 C 107.46 -0.87 107.2 -1.38 107.2 -2.28 C 107.2 -2.62 107.25 -2.96 107.37 -3.32 C 107.73 -3.09 108.1 -2.98 108.46 -2.96 C 109.26 -2.92 109.99 -3.37 110.43 -4.11 C 111.04 -5.17 110.96 -6.48 109.89 -6.48 C 108 -6.48 106.52 -4.05 106.52 -2.28 Z M 107.61 -3.96 C 108.1 -4.96 108.94 -5.8 109.89 -5.8 C 110.3 -5.8 110.28 -5.22 109.85 -4.45 C 109.5 -3.89 109.05 -3.6 108.49 -3.64 C 108.19 -3.66 107.92 -3.74 107.61 -3.96 Z M 124.56 -3.93 C 124.34 -3.3 123.83 -2.11 123.13 -2.11 C 122.86 -2.11 122.72 -2.58 122.69 -3.23 C 123.06 -3.91 123.39 -4.59 123.57 -5.12 C 123.86 -5.95 123.76 -6.48 123.22 -6.48 C 122.67 -6.48 122.31 -5.83 122.13 -4.88 C 122.04 -4.44 122.01 -3.93 122.03 -3.43 C 121.8 -3.03 121.55 -2.64 121.31 -2.28 C 120.77 -1.45 120.33 -0.92 120.17 -0.92 C 119.7 -0.92 120.05 -4.13 120.27 -5.07 C 120.31 -5.17 120.29 -5.29 120.22 -5.39 C 120.17 -5.47 120.07 -5.53 119.95 -5.53 C 119.82 -5.53 119.68 -5.44 119.63 -5.3 C 118.81 -3.3 117.67 -0.88 116.87 -0.88 C 116.21 -0.88 117.2 -4.18 117.88 -6.04 C 117.95 -6.24 117.81 -6.49 117.55 -6.49 C 117.4 -6.49 117.28 -6.41 117.23 -6.27 C 116.53 -4.37 115.19 -0.2 116.87 -0.2 C 117.76 -0.2 118.59 -1.48 119.32 -2.92 C 119.25 -1.6 119.41 -0.24 120.17 -0.24 C 120.65 -0.24 121.24 -0.92 121.89 -1.9 L 122.18 -2.36 C 122.33 -1.82 122.64 -1.43 123.13 -1.43 C 124.29 -1.43 124.97 -3.04 125.2 -3.69 C 125.27 -3.89 125.14 -4.15 124.88 -4.15 C 124.73 -4.15 124.61 -4.05 124.56 -3.93 Z M 143.4 -0.27 C 143.48 -1.1 143.62 -1.96 143.8 -2.84 C 143.87 -2.77 143.96 -2.74 144.06 -2.74 C 144.25 -2.74 144.4 -2.89 144.4 -3.08 C 144.4 -3.13 144.38 -3.2 144.36 -3.23 C 144.26 -3.42 144.16 -3.59 144.02 -3.76 C 144.57 -5.95 145.47 -8.43 146.86 -11.56 C 146.88 -11.59 146.9 -11.65 146.9 -11.7 C 146.9 -11.88 146.74 -12.04 146.56 -12.04 C 146.42 -12.04 146.3 -11.95 146.25 -11.83 C 144.93 -8.91 144.04 -6.49 143.48 -4.37 C 142.77 -5.03 141.85 -5.54 140.9 -5.8 C 141.56 -8.45 141.76 -10.95 143.21 -11.07 C 143.38 -11.08 143.51 -11.22 143.51 -11.41 C 143.51 -11.61 143.34 -11.76 143.14 -11.75 C 141.15 -11.59 140.88 -8.65 140.23 -5.93 C 139.81 -5.98 139.4 -5.98 139.01 -5.92 C 138.13 -5.71 137.38 -5.22 136.94 -4.2 C 136.83 -4 136.99 -3.72 137.24 -3.72 C 137.38 -3.72 137.5 -3.81 137.55 -3.93 C 137.9 -4.74 138.41 -5.08 139.15 -5.24 C 139.43 -5.29 139.74 -5.3 140.06 -5.27 C 140.01 -5.08 139.96 -4.9 139.89 -4.71 C 139.26 -2.74 138.31 -1.16 136.1 -0.87 C 135.95 -0.85 135.81 -0.7 135.81 -0.53 C 135.81 -0.32 136 -0.17 136.2 -0.19 C 138.74 -0.53 139.88 -2.45 140.54 -4.5 C 140.61 -4.73 140.68 -4.93 140.73 -5.15 C 141.7 -4.9 142.65 -4.33 143.28 -3.6 C 143 -2.45 142.82 -1.38 142.72 -0.34 C 142.7 -0.14 142.85 0.03 143.06 0.03 C 143.23 0.03 143.38 -0.1 143.4 -0.27 Z M 150.11 -2.28 C 150.11 -1.17 150.6 -0.19 151.71 -0.19 C 153.19 -0.19 154.89 -1.48 155.75 -3.71 C 155.82 -3.91 155.69 -4.17 155.43 -4.17 C 155.3 -4.17 155.16 -4.08 155.11 -3.94 C 154.33 -1.94 152.92 -0.87 151.71 -0.87 C 151.05 -0.87 150.79 -1.38 150.79 -2.28 C 150.79 -2.62 150.84 -2.96 150.96 -3.32 C 151.32 -3.09 151.69 -2.98 152.05 -2.96 C 152.85 -2.92 153.58 -3.37 154.02 -4.11 C 154.63 -5.17 154.55 -6.48 153.48 -6.48 C 151.59 -6.48 150.11 -4.05 150.11 -2.28 Z M 151.2 -3.96 C 151.69 -4.96 152.52 -5.8 153.48 -5.8 C 153.88 -5.8 153.87 -5.22 153.44 -4.45 C 153.09 -3.89 152.64 -3.6 152.08 -3.64 C 151.78 -3.66 151.5 -3.74 151.2 -3.96 Z M 161.81 -7.43 C 162.08 -7.43 162.33 -7.65 162.35 -7.94 C 162.37 -8.21 162.18 -8.43 161.91 -8.43 C 161.62 -8.43 161.36 -8.21 161.35 -7.94 C 161.33 -7.65 161.52 -7.43 161.81 -7.43 Z M 159.68 -1.9 C 159.68 -0.97 160.04 -0.2 160.99 -0.2 C 162.2 -0.2 163.03 -2.13 163.56 -3.72 C 163.63 -3.93 163.47 -4.17 163.23 -4.17 C 163.08 -4.17 162.96 -4.06 162.91 -3.93 C 162.38 -2.36 161.72 -0.88 160.99 -0.88 C 160.5 -0.88 160.36 -1.17 160.36 -1.9 C 160.36 -2.96 160.85 -4.5 161.48 -6 C 161.59 -6.21 161.43 -6.48 161.18 -6.48 C 161.04 -6.48 160.92 -6.39 160.87 -6.27 C 160.21 -4.74 159.68 -3.06 159.68 -1.9 Z M 173.67 -3.96 C 173.09 -2.72 172.21 -1.89 171.21 -1.22 C 171.7 -2.87 172.13 -4.57 172.53 -6.05 C 172.6 -6.24 172.45 -6.48 172.21 -6.48 C 172.09 -6.48 171.97 -6.41 171.92 -6.31 C 171.75 -6.41 171.51 -6.48 171.26 -6.48 C 168.83 -6.48 167.28 -3.5 167.28 -1.73 C 167.28 -0.9 167.65 -0.2 168.45 -0.2 C 169.35 -0.2 170.15 -1.19 170.85 -2.43 C 170.7 -1.85 170.53 -1.28 170.34 -0.7 C 169.81 -0.41 169.27 -0.14 168.71 0.14 C 167.2 0.9 164.59 2.31 164.59 3.84 C 164.59 4.79 165.51 5.32 166.35 5.32 C 168.54 5.32 169.88 2.79 170.88 -0.24 C 172.24 -1.02 173.5 -2.01 174.28 -3.66 C 174.3 -3.71 174.32 -3.76 174.32 -3.81 C 174.32 -4 174.17 -4.15 173.98 -4.15 C 173.84 -4.15 173.72 -4.06 173.67 -3.96 Z M 165.27 3.84 C 165.27 2.75 167.5 1.51 169.01 0.75 L 170.02 0.24 C 169.13 2.72 167.99 4.64 166.35 4.64 C 165.75 4.64 165.27 4.37 165.27 3.84 Z M 167.96 -1.73 C 167.96 -3.3 169.27 -5.8 171.26 -5.8 C 171.43 -5.8 171.53 -5.75 171.65 -5.68 C 170.75 -3.62 169.58 -0.88 168.45 -0.88 C 168.1 -0.88 167.96 -1.12 167.96 -1.73 Z M 184.74 -4.01 C 183.94 -2.64 183.01 -0.9 182.09 -0.9 C 181.7 -0.9 182.14 -1.97 182.72 -3.47 C 183.31 -5.07 183.75 -6.48 182.63 -6.48 C 181.32 -6.48 180.05 -4.85 178.89 -3.03 C 178.94 -3.2 179.01 -3.37 179.06 -3.55 L 179.13 -3.6 C 180.37 -5.15 182.17 -7.72 182.34 -7.97 C 184.01 -10.4 184.37 -11.73 183.21 -11.73 C 180.66 -11.73 178.59 -4.39 177.46 -0.68 C 177.45 -0.65 177.45 -0.61 177.45 -0.56 L 177.45 -0.51 C 177.48 -0.34 177.6 -0.22 177.79 -0.22 C 177.92 -0.22 178.06 -0.31 178.11 -0.44 C 179.59 -2.89 181.22 -5.8 182.63 -5.8 C 182.85 -5.8 182.56 -5.02 182.07 -3.71 C 181.37 -1.9 180.78 -0.22 182.09 -0.22 C 183.45 -0.22 184.52 -2.3 185.32 -3.67 C 185.35 -3.72 185.37 -3.77 185.37 -3.84 C 185.37 -4.03 185.22 -4.18 185.03 -4.18 C 184.91 -4.18 184.79 -4.11 184.74 -4.01 Z M 179.72 -5.51 C 180.76 -8.4 182 -11.05 183.21 -11.05 C 183.45 -11.05 183.23 -10.46 181.76 -8.35 C 181.65 -8.16 180.71 -6.82 179.72 -5.51 Z M 193.31 -3.98 C 192.44 -2.16 191.44 -0.9 190.57 -0.9 C 189.26 -0.9 190.2 -3.67 191.13 -6.1 L 192.8 -6.1 C 192.98 -6.1 193.14 -6.26 193.14 -6.44 C 193.14 -6.63 192.98 -6.78 192.8 -6.78 L 191.39 -6.78 L 191.98 -8.36 C 192.05 -8.57 191.91 -8.82 191.66 -8.82 C 191.51 -8.82 191.39 -8.72 191.34 -8.6 C 191.17 -8.11 190.91 -7.48 190.64 -6.78 L 188.97 -6.78 C 188.79 -6.78 188.63 -6.63 188.63 -6.44 C 188.63 -6.26 188.79 -6.1 188.97 -6.1 L 190.38 -6.1 C 189.4 -3.43 188.48 -0.22 190.57 -0.22 C 191.81 -0.22 193.02 -1.79 193.92 -3.67 C 193.94 -3.72 193.95 -3.77 193.95 -3.83 C 193.95 -4.01 193.8 -4.17 193.61 -4.17 C 193.48 -4.17 193.36 -4.08 193.31 -3.98 Z M 202.18 -3.83 C 201.89 -2.94 201.38 -2.48 200.77 -2.18 C 200.65 -2.64 200.43 -3.03 200.26 -3.38 C 199.94 -4.05 199.82 -4.74 200.91 -6.56 C 200.94 -6.61 200.96 -6.68 200.96 -6.75 C 200.96 -6.92 200.84 -7.06 200.67 -7.09 C 200.62 -7.11 200.57 -7.12 200.52 -7.12 C 200.43 -7.12 200.36 -7.09 200.29 -7.04 C 199.5 -6.39 198.7 -5.41 198.19 -3.83 C 198.08 -3.57 198.32 -3.49 198.48 -3.49 C 198.66 -3.49 198.82 -3.57 198.92 -3.83 C 199.07 -4.3 199.26 -4.73 199.48 -5.1 C 199.24 -4.17 199.41 -3.59 199.65 -3.08 C 199.84 -2.7 200.02 -2.33 200.11 -1.94 C 198.76 -1.6 197.54 -1.9 197.54 -0.95 C 197.54 -0.02 200.28 0.7 200.75 -0.78 C 200.82 -1.04 200.86 -1.26 200.86 -1.48 C 200.91 -1.5 200.96 -1.53 201.01 -1.55 C 201.76 -1.9 202.47 -2.53 202.91 -3.83 C 203.07 -4.22 202.39 -4.33 202.18 -3.83 Z M 198.22 -0.95 C 198.22 -1.14 199.05 -0.97 200.16 -1.26 L 200.11 -0.99 C 199.84 -0.22 198.22 -0.65 198.22 -0.95 Z M 217.21 -0.22 C 220.03 -0.22 221.22 -2.77 222 -5.32 C 222.62 -7.36 222.97 -9.37 223.57 -10.37 C 225.1 -10.12 226.66 -10.06 227.92 -10.97 C 228 -11.02 228.06 -11.12 228.06 -11.24 C 228.06 -11.42 227.9 -11.58 227.72 -11.58 C 227.65 -11.58 227.58 -11.56 227.51 -11.51 C 226.61 -10.86 225.47 -10.85 224.23 -11.02 C 224.32 -11.03 224.4 -11.05 224.49 -11.05 C 224.67 -11.05 224.83 -11.2 224.83 -11.39 C 224.83 -11.58 224.67 -11.73 224.49 -11.73 C 224.01 -11.73 223.64 -11.53 223.31 -11.15 C 221.26 -11.53 219.13 -12.07 217.69 -10.85 C 217.62 -10.79 217.57 -10.69 217.57 -10.59 C 217.57 -10.4 217.72 -10.25 217.91 -10.25 C 217.99 -10.25 218.06 -10.29 218.13 -10.34 C 219.23 -11.27 221 -10.83 222.89 -10.49 C 222.24 -9.25 221.9 -7.29 221.36 -5.53 C 220.59 -3.03 219.57 -0.9 217.21 -0.9 C 217.02 -0.9 216.87 -0.75 216.87 -0.56 C 216.87 -0.37 217.02 -0.22 217.21 -0.22 Z M 235.16 -3.83 C 234.58 -2.58 233.77 -2.19 232.95 -2.16 C 233.9 -4 233.92 -6.48 232.19 -6.48 C 231.05 -6.48 230.35 -5.56 230.21 -4.5 C 230.15 -4.47 230.1 -4.42 230.06 -4.37 C 229.14 -2.84 228.82 -0.22 230.49 -0.22 C 231.3 -0.22 232 -0.75 232.54 -1.5 C 232.65 -1.48 232.75 -1.48 232.85 -1.48 C 233.89 -1.48 235.04 -1.99 235.77 -3.54 C 235.79 -3.59 235.81 -3.62 235.81 -3.67 C 235.81 -3.88 235.65 -4.01 235.47 -4.01 C 235.33 -4.01 235.21 -3.94 235.16 -3.83 Z M 230.28 -3.33 C 230.49 -2.58 231 -1.92 231.86 -1.63 C 231.47 -1.19 231 -0.9 230.49 -0.9 C 229.76 -0.9 229.81 -2.16 230.28 -3.33 Z M 232.19 -5.8 C 233.36 -5.8 233.17 -3.67 232.29 -2.21 C 230.11 -2.67 230.44 -5.8 232.19 -5.8 Z M 245.97 -3.96 C 245.4 -2.72 244.51 -1.89 243.51 -1.22 C 244 -2.87 244.43 -4.57 244.83 -6.05 C 244.9 -6.24 244.75 -6.48 244.51 -6.48 C 244.39 -6.48 244.27 -6.41 244.22 -6.31 C 244.05 -6.41 243.81 -6.48 243.56 -6.48 C 241.13 -6.48 239.58 -3.5 239.58 -1.73 C 239.58 -0.9 239.96 -0.2 240.75 -0.2 C 241.66 -0.2 242.45 -1.19 243.15 -2.43 C 243 -1.85 242.83 -1.28 242.64 -0.7 C 242.11 -0.41 241.57 -0.14 241.01 0.14 C 239.5 0.9 236.9 2.31 236.9 3.84 C 236.9 4.79 237.81 5.32 238.65 5.32 C 240.84 5.32 242.18 2.79 243.19 -0.24 C 244.55 -1.02 245.8 -2.01 246.59 -3.66 C 246.6 -3.71 246.62 -3.76 246.62 -3.81 C 246.62 -4 246.47 -4.15 246.28 -4.15 C 246.14 -4.15 246.02 -4.06 245.97 -3.96 Z M 237.58 3.84 C 237.58 2.75 239.8 1.51 241.32 0.75 L 242.32 0.24 C 241.43 2.72 240.3 4.64 238.65 4.64 C 238.05 4.64 237.58 4.37 237.58 3.84 Z M 240.26 -1.73 C 240.26 -3.3 241.57 -5.8 243.56 -5.8 C 243.73 -5.8 243.83 -5.75 243.95 -5.68 C 243.05 -3.62 241.88 -0.88 240.75 -0.88 C 240.4 -0.88 240.26 -1.12 240.26 -1.73 Z M 250.55 -2.28 C 250.55 -1.17 251.04 -0.19 252.14 -0.19 C 253.62 -0.19 255.32 -1.48 256.19 -3.71 C 256.26 -3.91 256.12 -4.17 255.87 -4.17 C 255.73 -4.17 255.6 -4.08 255.54 -3.94 C 254.76 -1.94 253.35 -0.87 252.14 -0.87 C 251.48 -0.87 251.23 -1.38 251.23 -2.28 C 251.23 -2.62 251.28 -2.96 251.4 -3.32 C 251.75 -3.09 252.13 -2.98 252.48 -2.96 C 253.28 -2.92 254.01 -3.37 254.46 -4.11 C 255.07 -5.17 254.98 -6.48 253.91 -6.48 C 252.03 -6.48 250.55 -4.05 250.55 -2.28 Z M 251.63 -3.96 C 252.13 -4.96 252.96 -5.8 253.91 -5.8 C 254.32 -5.8 254.3 -5.22 253.88 -4.45 C 253.52 -3.89 253.08 -3.6 252.52 -3.64 C 252.21 -3.66 251.94 -3.74 251.63 -3.96 Z M 264.11 -3.98 C 263.25 -2.16 262.24 -0.9 261.38 -0.9 C 260.07 -0.9 261 -3.67 261.94 -6.1 L 263.6 -6.1 C 263.79 -6.1 263.94 -6.26 263.94 -6.44 C 263.94 -6.63 263.79 -6.78 263.6 -6.78 L 262.19 -6.78 L 262.79 -8.36 C 262.85 -8.57 262.72 -8.82 262.46 -8.82 C 262.31 -8.82 262.19 -8.72 262.14 -8.6 C 261.97 -8.11 261.72 -7.48 261.44 -6.78 L 259.78 -6.78 C 259.59 -6.78 259.44 -6.63 259.44 -6.44 C 259.44 -6.26 259.59 -6.1 259.78 -6.1 L 261.19 -6.1 C 260.2 -3.43 259.28 -0.22 261.38 -0.22 C 262.62 -0.22 263.82 -1.79 264.72 -3.67 C 264.74 -3.72 264.76 -3.77 264.76 -3.83 C 264.76 -4.01 264.61 -4.17 264.42 -4.17 C 264.28 -4.17 264.16 -4.08 264.11 -3.98 Z M 275.32 -4.01 C 274.52 -2.64 273.58 -0.9 272.66 -0.9 C 272.27 -0.9 272.71 -1.97 273.29 -3.47 C 273.89 -5.07 274.33 -6.48 273.21 -6.48 C 271.9 -6.48 270.62 -4.85 269.47 -3.03 C 269.52 -3.2 269.59 -3.37 269.64 -3.55 L 269.71 -3.6 C 270.95 -5.15 272.75 -7.72 272.92 -7.97 C 274.58 -10.4 274.94 -11.73 273.79 -11.73 C 271.24 -11.73 269.16 -4.39 268.04 -0.68 C 268.02 -0.65 268.02 -0.61 268.02 -0.56 L 268.02 -0.51 C 268.06 -0.34 268.18 -0.22 268.36 -0.22 C 268.5 -0.22 268.63 -0.31 268.69 -0.44 C 270.16 -2.89 271.8 -5.8 273.21 -5.8 C 273.43 -5.8 273.14 -5.02 272.65 -3.71 C 271.95 -1.9 271.35 -0.22 272.66 -0.22 C 274.02 -0.22 275.09 -2.3 275.89 -3.67 C 275.93 -3.72 275.94 -3.77 275.94 -3.84 C 275.94 -4.03 275.79 -4.18 275.6 -4.18 C 275.49 -4.18 275.37 -4.11 275.32 -4.01 Z M 270.3 -5.51 C 271.34 -8.4 272.58 -11.05 273.79 -11.05 C 274.02 -11.05 273.8 -10.46 272.34 -8.35 C 272.22 -8.16 271.29 -6.82 270.3 -5.51 Z M 279.85 -2.28 C 279.85 -1.17 280.35 -0.19 281.45 -0.19 C 282.93 -0.19 284.63 -1.48 285.5 -3.71 C 285.57 -3.91 285.43 -4.17 285.18 -4.17 C 285.04 -4.17 284.9 -4.08 284.85 -3.94 C 284.07 -1.94 282.66 -0.87 281.45 -0.87 C 280.79 -0.87 280.53 -1.38 280.53 -2.28 C 280.53 -2.62 280.59 -2.96 280.7 -3.32 C 281.06 -3.09 281.44 -2.98 281.79 -2.96 C 282.59 -2.92 283.32 -3.37 283.76 -4.11 C 284.38 -5.17 284.29 -6.48 283.22 -6.48 C 281.33 -6.48 279.85 -4.05 279.85 -2.28 Z M 280.94 -3.96 C 281.44 -4.96 282.27 -5.8 283.22 -5.8 C 283.63 -5.8 283.61 -5.22 283.19 -4.45 C 282.83 -3.89 282.39 -3.6 281.83 -3.64 C 281.52 -3.66 281.25 -3.74 280.94 -3.96 Z M 290.45 -3.83 L 291.04 -5.27 C 291.48 -5.15 291.94 -5.05 292.25 -4.9 C 292.4 -4.88 292.15 -4.1 291.81 -2.99 C 291.36 -1.6 291.4 -0.22 292.57 -0.22 C 293.95 -0.22 294.81 -1.99 295.6 -3.83 C 295.78 -4.27 295.09 -4.44 294.87 -3.83 C 294.25 -2.28 293.51 -0.9 292.57 -0.9 C 292.06 -0.9 292.11 -1.67 292.45 -2.79 C 292.84 -4.03 293.25 -5.24 292.52 -5.53 C 292.13 -5.71 291.69 -5.83 291.31 -5.93 L 291.48 -6.36 C 292.06 -7.92 290.14 -8.26 289.61 -6.92 C 289.34 -6.12 289.77 -5.73 290.38 -5.47 L 289.71 -3.83 C 289.61 -3.57 289.82 -3.49 289.97 -3.49 C 290.16 -3.49 290.33 -3.54 290.45 -3.83 Z M 290.26 -6.68 C 290.51 -7.36 291.11 -7.33 290.84 -6.6 L 290.65 -6.12 C 290.33 -6.24 290.16 -6.39 290.26 -6.68 Z" stroke-linecap="round" />
</g>
</g>
</g>
<g transform="matrix(1.9211538461538462 0 0 1.9211538461538462 663.8568715704819 689.1482536016445)" id="tagline-cafc4e07-a7e0-456f-98bc-190494aa6921-logo"  >
<g style=""  paint-order="stroke"   >
		<g transform="matrix(1 0 0 1 0 0)" id="tagline-cafc4e07-a7e0-456f-98bc-190494aa6921-logo-path-0"  >
<path style="stroke: none; stroke-width: 0; stroke-dasharray: none; stroke-linecap: butt; stroke-dashoffset: 0; stroke-linejoin: miter; stroke-miterlimit: 4; fill: rgb(62,22,70); fill-rule: nonzero; opacity: 1;"  paint-order="stroke"  transform=" translate(-137.16000000000003, 8.049999999999999)" d="M 3.29 0 L 7.2 0 L 8.16 -5.41 L 10.63 -5.41 C 13.85 -5.41 16.33 -7.34 16.93 -10.76 C 17.48 -13.96 15.92 -16.1 12.51 -16.1 L 6.14 -16.1 Z M -5.91 -0.62 L 2.71 0 L 2.94 -1.24 Z M -5.47 -3.1 L 3.15 -2.46 L 3.38 -3.73 Z M -5.04 -5.57 L 3.59 -4.95 L 3.79 -6.19 Z M -4.6 -8.05 L 4.03 -7.43 L 4.23 -8.67 Z M -4.16 -10.53 L 4.46 -9.89 L 4.69 -11.15 Z M -3.73 -12.99 L 4.9 -12.37 L 5.11 -13.62 Z M -3.29 -15.48 L 5.34 -14.86 L 5.54 -16.1 Z M 8.76 -8.86 L 9.43 -12.65 L 11.43 -12.65 C 12.58 -12.65 13.22 -11.96 13.02 -10.76 C 12.81 -9.61 11.98 -8.86 10.76 -8.86 Z M 19.5 0 L 23.41 0 L 26.27 -16.1 L 22.36 -16.1 Z M 36.41 0 L 40.78 0 L 43.63 -16.1 L 39.72 -16.1 L 38.06 -6.72 L 34.89 -16.1 L 30.52 -16.1 L 27.67 0 L 31.58 0 L 33.23 -9.38 Z M 53.77 0 L 58.14 0 L 61 -16.1 L 57.09 -16.1 L 55.43 -6.72 L 52.26 -16.1 L 47.89 -16.1 L 45.03 0 L 48.94 0 L 50.6 -9.38 Z M 62.4 0 L 66.42 0 L 67.83 -2.88 L 72.93 -2.88 L 73.32 0 L 77.35 0 L 74.68 -16.1 L 70.77 -16.1 Z M 69.53 -6.33 L 71.83 -10.97 L 72.45 -6.33 Z M 87.24 0.23 C 89.03 0.23 90.71 -0.21 92.11 -1.06 L 90.16 -3.98 C 89.49 -3.5 88.37 -3.22 87.49 -3.22 C 85.26 -3.22 84.09 -4.97 84.64 -8.05 C 85.15 -10.95 86.83 -12.88 89.19 -12.88 C 89.93 -12.88 90.92 -12.67 91.4 -12.28 L 94.28 -15.29 C 93.22 -15.96 91.82 -16.33 90.14 -16.33 C 85.35 -16.33 81.67 -13.34 80.73 -8.05 C 79.86 -3.08 82.18 0.23 87.24 0.23 Z M 95.5 0 L 106.47 0 L 107.09 -3.45 L 100.03 -3.45 L 102.26 -16.1 L 98.35 -16.1 Z M 110.72 0 L 121 0 L 121.62 -3.45 L 115.25 -3.45 L 115.76 -6.33 L 121.21 -6.33 L 121.81 -9.78 L 116.36 -9.78 L 116.86 -12.65 L 123.23 -12.65 L 123.85 -16.1 L 113.57 -16.1 Z M 145.31 0.23 C 148.12 0.23 151.39 -1.82 151.92 -4.78 C 152.26 -6.76 150.9 -7.96 149.16 -8.9 C 147.82 -9.61 145.15 -10.74 145.31 -11.71 C 145.45 -12.44 146.14 -12.88 147.48 -12.88 C 148.56 -12.88 149.36 -12.51 149.84 -11.96 L 153.04 -14.4 C 152.24 -15.36 150.19 -16.33 148.07 -16.33 C 144.33 -16.33 141.82 -14.1 141.38 -11.57 C 141.08 -9.82 141.77 -8.53 143.43 -7.61 C 144.6 -6.9 148.17 -5.68 147.94 -4.46 C 147.82 -3.79 146.9 -3.22 145.47 -3.22 C 144.56 -3.22 143.2 -3.73 142.14 -4.81 L 139.1 -2.19 C 140.35 -0.94 142.46 0.23 145.31 0.23 Z M 130.16 -0.62 L 141.47 0 C 140.25 -0.46 139.86 -0.69 139.01 -1.24 Z M 130.55 -3.1 L 138.6 -2.46 L 140.09 -3.75 Z M 131.93 -10.53 L 140.88 -9.87 C 140.74 -10.28 140.71 -10.7 140.78 -11.15 Z M 132.11 -8.05 L 142.9 -7.27 C 142.14 -7.54 141.5 -8.03 140.97 -8.67 Z M 132.3 -12.99 L 140.92 -12.37 C 141.01 -12.77 141.15 -13.18 141.4 -13.62 Z M 132.96 -5.57 L 141.38 -4.95 L 142.97 -6.19 Z M 133.65 -15.48 L 142.28 -14.86 C 142.67 -15.29 143.13 -15.71 143.8 -16.1 Z M 162.1 0.23 C 166.45 0.23 169.88 -2.78 170.8 -8.05 C 171.67 -13.02 169.63 -16.33 165 -16.33 C 160.63 -16.33 157.23 -13.34 156.29 -8.05 C 155.41 -3.08 157.48 0.23 162.1 0.23 Z M 160.17 -8.05 C 160.68 -10.95 162.24 -12.88 164.4 -12.88 C 166.43 -12.88 167.46 -11.13 166.91 -8.05 C 166.41 -5.15 164.84 -3.22 162.7 -3.22 C 160.68 -3.22 159.62 -4.97 160.17 -8.05 Z M 173.63 0 L 184.6 0 L 185.22 -3.45 L 178.16 -3.45 L 180.39 -16.1 L 176.48 -16.1 Z M 195.18 0.23 C 199.43 0.23 201.89 -2.07 202.61 -6.12 L 204.38 -16.1 L 200.47 -16.1 L 198.65 -5.87 C 198.35 -4.23 197.36 -3.45 195.82 -3.45 C 194.19 -3.45 193.55 -4.32 193.82 -5.87 L 195.64 -16.1 L 191.73 -16.1 L 189.96 -6.12 C 189.2 -1.84 191.13 0.23 195.18 0.23 Z M 209.6 0 L 213.51 0 L 215.74 -12.65 L 219.58 -12.65 L 220.2 -16.1 L 208.61 -16.1 L 207.99 -12.65 L 211.83 -12.65 Z M 221.61 0 L 225.52 0 L 228.37 -16.1 L 224.46 -16.1 Z M 237.02 0.23 C 241.36 0.23 244.79 -2.78 245.71 -8.05 C 246.58 -13.02 244.54 -16.33 239.91 -16.33 C 235.54 -16.33 232.14 -13.34 231.2 -8.05 C 230.32 -3.08 232.39 0.23 237.02 0.23 Z M 235.08 -8.05 C 235.59 -10.95 237.15 -12.88 239.32 -12.88 C 241.34 -12.88 242.37 -11.13 241.82 -8.05 C 241.32 -5.15 239.75 -3.22 237.61 -3.22 C 235.59 -3.22 234.53 -4.97 235.08 -8.05 Z M 257.28 0 L 261.65 0 L 264.5 -16.1 L 260.59 -16.1 L 258.93 -6.72 L 255.76 -16.1 L 251.39 -16.1 L 248.54 0 L 252.45 0 L 254.1 -9.38 Z M 272.5 0.23 C 275.31 0.23 278.58 -1.82 279.11 -4.78 C 279.45 -6.76 278.09 -7.96 276.35 -8.9 C 275.01 -9.61 272.34 -10.74 272.5 -11.71 C 272.64 -12.44 273.33 -12.88 274.67 -12.88 C 275.75 -12.88 276.55 -12.51 277.04 -11.96 L 280.23 -14.4 C 279.43 -15.36 277.38 -16.33 275.26 -16.33 C 271.51 -16.33 269.01 -14.1 268.57 -11.57 C 268.27 -9.82 268.96 -8.53 270.62 -7.61 C 271.79 -6.9 275.36 -5.68 275.13 -4.46 C 275.01 -3.79 274.09 -3.22 272.67 -3.22 C 271.75 -3.22 270.39 -3.73 269.33 -4.81 L 266.29 -2.19 C 267.54 -0.94 269.65 0.23 272.5 0.23 Z" stroke-linecap="round" />
</g>
</g>
</g>
</svg>